<svg width="1638" height="882" viewBox="0 0 1638 882" fill="none" xmlns="http://www.w3.org/2000/svg">
<path d="M159 42C159 40.8954 159.895 40 161 40H1596C1597.1 40 1598 40.8954 1598 42V557C1598 558.105 1597.1 559 1596 559H161C159.895 559 159 558.105 159 557V42Z" fill="#6635A5"/>
<path d="M283.788 296.28C303.764 272.609 340.236 272.609 360.212 296.28L591.208 570.003C618.641 602.511 595.533 652.25 552.996 652.25H91.0041C48.4668 652.25 25.3585 602.511 52.7925 570.003L283.788 296.28Z" fill="#BC87FF" fill-opacity="0.2"/>
<ellipse cx="634.875" cy="572.522" rx="274.975" ry="268.636" transform="rotate(-0.815282 634.875 572.522)" fill="#BC87FF" fill-opacity="0.06"/>
<rect x="159" y="4" width="45.5781" height="30" rx="3" fill="#6635A5"/>
<rect x="159.5" y="4.5" width="44.5781" height="29" rx="2.5" stroke="black" stroke-opacity="0.14902"/>
<path d="M165.969 22V14H170.766V14.8594H166.938V17.5625H170.406V18.4219H166.938V22H165.969ZM174.297 22.125C173.755 22.125 173.28 21.9961 172.871 21.7383C172.465 21.4805 172.147 21.1198 171.918 20.6562C171.691 20.1927 171.578 19.651 171.578 19.0312C171.578 18.4062 171.691 17.8607 171.918 17.3945C172.147 16.9284 172.465 16.5664 172.871 16.3086C173.28 16.0508 173.755 15.9219 174.297 15.9219C174.839 15.9219 175.313 16.0508 175.719 16.3086C176.128 16.5664 176.445 16.9284 176.672 17.3945C176.901 17.8607 177.016 18.4062 177.016 19.0312C177.016 19.651 176.901 20.1927 176.672 20.6562C176.445 21.1198 176.128 21.4805 175.719 21.7383C175.313 21.9961 174.839 22.125 174.297 22.125ZM174.297 21.2969C174.708 21.2969 175.047 21.1914 175.312 20.9805C175.578 20.7695 175.775 20.4922 175.902 20.1484C176.03 19.8047 176.094 19.4323 176.094 19.0312C176.094 18.6302 176.03 18.2565 175.902 17.9102C175.775 17.5638 175.578 17.2839 175.312 17.0703C175.047 16.8568 174.708 16.75 174.297 16.75C173.885 16.75 173.547 16.8568 173.281 17.0703C173.016 17.2839 172.819 17.5638 172.691 17.9102C172.564 18.2565 172.5 18.6302 172.5 19.0312C172.5 19.4323 172.564 19.8047 172.691 20.1484C172.819 20.4922 173.016 20.7695 173.281 20.9805C173.547 21.1914 173.885 21.2969 174.297 21.2969ZM180.86 22.125C180.319 22.125 179.843 21.9961 179.435 21.7383C179.028 21.4805 178.711 21.1198 178.481 20.6562C178.255 20.1927 178.142 19.651 178.142 19.0312C178.142 18.4062 178.255 17.8607 178.481 17.3945C178.711 16.9284 179.028 16.5664 179.435 16.3086C179.843 16.0508 180.319 15.9219 180.86 15.9219C181.402 15.9219 181.876 16.0508 182.282 16.3086C182.691 16.5664 183.009 16.9284 183.235 17.3945C183.465 17.8607 183.579 18.4062 183.579 19.0312C183.579 19.651 183.465 20.1927 183.235 20.6562C183.009 21.1198 182.691 21.4805 182.282 21.7383C181.876 21.9961 181.402 22.125 180.86 22.125ZM180.86 21.2969C181.272 21.2969 181.61 21.1914 181.876 20.9805C182.142 20.7695 182.338 20.4922 182.466 20.1484C182.593 19.8047 182.657 19.4323 182.657 19.0312C182.657 18.6302 182.593 18.2565 182.466 17.9102C182.338 17.5638 182.142 17.2839 181.876 17.0703C181.61 16.8568 181.272 16.75 180.86 16.75C180.449 16.75 180.11 16.8568 179.845 17.0703C179.579 17.2839 179.382 17.5638 179.255 17.9102C179.127 18.2565 179.063 18.6302 179.063 19.0312C179.063 19.4323 179.127 19.8047 179.255 20.1484C179.382 20.4922 179.579 20.7695 179.845 20.9805C180.11 21.1914 180.449 21.2969 180.86 21.2969ZM187.596 16V16.7812H184.486V16H187.596ZM185.393 14.5625H186.314V20.2812C186.314 20.5417 186.352 20.737 186.428 20.8672C186.506 20.9948 186.605 21.0807 186.725 21.125C186.847 21.1667 186.976 21.1875 187.111 21.1875C187.213 21.1875 187.296 21.1823 187.361 21.1719C187.426 21.1589 187.479 21.1484 187.518 21.1406L187.705 21.9687C187.643 21.9922 187.555 22.0156 187.443 22.0391C187.331 22.0651 187.189 22.0781 187.018 22.0781C186.757 22.0781 186.502 22.0221 186.252 21.9102C186.005 21.7982 185.799 21.6276 185.635 21.3984C185.473 21.1693 185.393 20.8802 185.393 20.5312V14.5625ZM191.434 22.125C190.855 22.125 190.357 21.9974 189.937 21.7422C189.521 21.4844 189.199 21.125 188.973 20.6641C188.749 20.2005 188.637 19.6615 188.637 19.0469C188.637 18.4323 188.749 17.8906 188.973 17.4219C189.199 16.9505 189.514 16.5833 189.918 16.3203C190.324 16.0547 190.798 15.9219 191.34 15.9219C191.652 15.9219 191.961 15.974 192.266 16.0781C192.57 16.1823 192.848 16.3516 193.098 16.5859C193.348 16.8177 193.547 17.125 193.695 17.5078C193.844 17.8906 193.918 18.362 193.918 18.9219V19.3125H189.293V18.5156H192.98C192.98 18.1771 192.913 17.875 192.777 17.6094C192.645 17.3437 192.454 17.1341 192.207 16.9805C191.962 16.8268 191.673 16.75 191.34 16.75C190.973 16.75 190.655 16.8411 190.387 17.0234C190.121 17.2031 189.917 17.4375 189.773 17.7266C189.63 18.0156 189.559 18.3255 189.559 18.6562V19.1875C189.559 19.6406 189.637 20.0247 189.793 20.3398C189.952 20.6523 190.172 20.8906 190.453 21.0547C190.734 21.2161 191.061 21.2969 191.434 21.2969C191.676 21.2969 191.895 21.263 192.09 21.1953C192.288 21.125 192.458 21.0208 192.602 20.8828C192.745 20.7422 192.855 20.5677 192.934 20.3594L193.824 20.6094C193.73 20.9115 193.573 21.1771 193.352 21.4062C193.13 21.6328 192.857 21.8099 192.531 21.9375C192.206 22.0625 191.84 22.125 191.434 22.125ZM195.32 22V16H196.211V16.9062H196.273C196.383 16.6094 196.581 16.3685 196.867 16.1836C197.154 15.9987 197.477 15.9062 197.836 15.9062C197.904 15.9062 197.988 15.9076 198.09 15.9102C198.191 15.9128 198.268 15.9167 198.32 15.9219V16.8594C198.289 16.8516 198.217 16.8398 198.105 16.8242C197.996 16.806 197.88 16.7969 197.758 16.7969C197.466 16.7969 197.206 16.8581 196.977 16.9805C196.75 17.1003 196.57 17.2669 196.438 17.4805C196.307 17.6914 196.242 17.9323 196.242 18.2031V22H195.32Z" fill="white"/>
</svg>
